<svg id="Layer_1" data-name="Layer 1" xmlns="http://www.w3.org/2000/svg" viewBox="0 0 325 193.63"><defs><style>.cls-1{fill:#537b9d;}</style></defs><title>IBSU-WEB-005</title><path class="cls-1" d="M13.63,46.53C9.94,48.1,7,51.31,2.7,51.6a.45.45,0,0,1-.15-.44c.05-.16.09-.23.14-.23,1.89-1,3.85-2,5.66-3.11,2.15-1.38,2.07-2.33-.1-3.54C8,44.15,7.51,44,7.52,44c.72-2.23-2.18-3.43-1.48-5.87.48-1.69,1.81-2.31,2.6-3.51S11,33.73,12,33.7c1.78-.06,2-.89,2.26-2.33-1.36,0-2.83.12-3.91-.75-.88-.71.18-1.72,0-2.67-.26-1.58,1.23-1.32,2.13-1.56s1.91-1.3,2.41.43a1,1,0,0,0,1.29.75c.73-.18.65-.86.59-1.4s-.38-1.07-.4-1.61c-.08-2.35-1.31-5.19,3.18-5,1.7.06,3.27-1.82,5.25-2.4,4.14-1.2,4.29-1.25,6.9,2.13a12.28,12.28,0,0,0,4.22,3,10.19,10.19,0,0,1,4.29,3.79c.31.51.55,1.06,1.25.84,2.64-.82,5.38-.56,8.07-.87.55-.06.9-.28.82.39-.23,1.95,1.43,1.93,2.49,2.19a3.27,3.27,0,0,1,1.73,1.23c.88.93,1.68,2.15,3.29,1.77l.36.15a10.1,10.1,0,0,0,3,3.2c.72.49,1,.7,1.28-.3.5-1.56,1.67-1.58,3-1.11l.28.28c-.41,2.05.85,3,2.52,3.33s3.26.09,2.75-2.38c0-.13.37-.48.6-.51,3-.37,2.92-3.44,4.45-5.09,0-.42,0-.68.54-.45a1.7,1.7,0,0,0,1-1.6c0-1.05.75-1.7,1.24-2.48a1.89,1.89,0,0,1,2.42-.93C81.93,24,83,24.16,83,25a2.42,2.42,0,0,1-1.78,2c-5,.71-1.86,5.35-3.77,7.5a2.11,2.11,0,0,0,.52.59c1.54,1.09,1.69,2.59,1,4.35l.7.35a21.44,21.44,0,0,0,2.37-3c.32-.58.92-1.34.09-2.29-2.32-2.65-1-7.24,2.34-8.58,1.88-.77,3.1,1.3,5.08,1,2.35-.41,3.3,1.26,3.33,3.63s2.37,3.06,3.45,4.68c.6.9,1.51,2,.82,2.78-2.29,2.46.35,3.54,1.36,4.69s1.89,1.93.24,3.29c-1.3,1.07-2.25,1.7-2.87-.51A.65.65,0,0,0,95,45a.82.82,0,0,0-.36,1.2c.34.76.86,1.44,1.13,2.22a2.27,2.27,0,0,1-.53,2.62c-.73.56-1.09-.81-1.87-.69-.17.63.77,1.28.16,1.8s-1.28-.1-1.73-.47c-.77-.65-2-.87-2.21-2.07-.34-1.83-1.39-2.58-3.22-2.24-.74.13-1.48-.06-1.44-.87a1.24,1.24,0,0,1,1.6-1.18c2.8.66,3.23-2.1,4.55-3.36.83-.8.38-2.42-1.49-2.4l0,0c.66-3.92-2.18-3.6-4.6-3.8.83,4-1.72,7.29-5.35,6.7-.2,2.25,2.49,3.23,2.37,5.56-1.17.17-2.29-.3-3.6,0-1.93.5-.77-1.53-.89-2.6a20,20,0,0,0-8.74,6c-2.27,2.76-1.64,5.39,1.38,7.15,1.92,1.12,3.11,3.28,5.53,3.8.74.15.27,1.17.22,1.78-.08.83-.58,1.65,0,2.47.35.52.51,1.32,1.35,1.26s1-.77,1-1.46c-.25-2.21.38-3.83,2.68-4.6.75-.25,1.34-1.24,1-1.84-1.3-2.62.62-4.73,1-7.05.14-.83-.12-2.63,1.21-2.49s3.13-.2,4,1.46c.71,1.35,2.66,2.2,1.55,4.31-.35.65.27,1.49,1,1.83s1.18-.37,1.7-.73c.68-.48.69-1.58,1.68-1.79.78.5.52,1.37.75,2,.91,2.59.39,5.68,3.5,7.45,1.56.89,1.59,3,.89,4.82-.41,1.06-1.08,2,.93,2.4,1.31.29,1.17,2.2.9,3.14-.36,1.26-1.71.14-2.08-.16-1.09-.88-3.17.22-3.38-1.16-.15-1,1.19-2.23,1.86-3.36a2.28,2.28,0,0,0,.34-1c-2.88,3-7.08-.35-10.4,2.61,1.76,0,3.74-.76,2.82,2.19-.41,1.31,1.34,1.87,2.7,1.7.37,0,.71-.78,1.09-.11.26.43.13,1.09-.41,1.14-2,.19-3.37,3.09-6.12,1.25-.92-.61-3.65.21-3.86,1.94s-1.24,2-2.35,2.44a6.27,6.27,0,0,0-3.85,4.53c-.36,3.1-2.55,4.11-4.44,5.36a4,4,0,0,0-1.88,5c.32,1.21,1.08,3.14-.38,3.51s-1.63-1.7-2-2.89c-.58-2-4.34-3.61-6-2.15-1.13,1-2,.68-3.06.51-2.81-.42-4.69,1-5.37,3.83-.47,1.94-1.22,3.8-.48,5.82.51,1.4,1.34,2.79,2.87,2.77,1.35,0,3.14,0,3.62-2,.31-1.29,1.5-1.33,2.48-1.54,1.15-.25,1.63.22,1.09,1.41a13.78,13.78,0,0,1-.43,1.33c-1.44,2.36-1.45,3.71,2,3.45,1.87-.14,2.28,1.16,1.89,2.9-.76,3.37.19,3.3,3.39,4s4.35-1.92,6.61-2.5a7,7,0,0,1,4.61.44c1,.44,2,1,2.93.73,2.46-.66,4.09.5,5.69,2a9.65,9.65,0,0,0,5.91,2.85c2.59.26,3.59,2.62,4.22,4.79.26.88.62,1.46,1.28,1.58,2.57.47,4.64,2.49,7.38,2.38s4.32,1.85,6.1,3.18c1.26.94.92,3-.42,4.29a9.1,9.1,0,0,0-3,6.75A10.13,10.13,0,0,1,110.9,150a4.46,4.46,0,0,1-2.84,2.35c-2.33.82-4.73,1.61-5,5.2-.22,3.12-3,5.48-4.73,8.16-.63,1-2,.09-2.86.55,1,3.64.84,3.86-2.88,4.73-.75.18-1.33.34-1.22,1.18.23,1.81-1,1.89-2.46,1.74,2,2.25.3,3.92-.56,5.38-.57,1-1.18,1.57,0,2.19,1.48.78,1.13,1.5.49,2.7-2.06,3.81-1.28,6.1,2.63,8.47-2.85,2.1-6.58.7-8.45-2.36-1.71-2.81-2.06-5.89-2.8-8.87-.27-1.11,1.53-2.37,1.24-3.92-.06-.35,1.06-2.39-1-.85-.45.34-.39-.78-.37-1.27.2-7.57.3-15.14.67-22.71.16-3.31-.3-5.92-3.78-7.28A6.86,6.86,0,0,1,74,142.2c-1.44-2.4-2.25-5.17-4.47-7.18-1.27-1.15,0-6.66,2.08-8.6s1.61-4,.51-6.1c-.25-.49-.37-1.07-1.18-.76-2.73,1-4.89.41-6.33-2.09a5.59,5.59,0,0,0-3.91-2.93,5.73,5.73,0,0,1-3.21-1.67,2.52,2.52,0,0,0-2.75-.8c-2,.47-9.08-2.75-9.15-4.28-.24-5.73-5.65-8.71-7-13.79,0,0-.17,0-.68-.18.38,3.67,3,6.38,3.75,10.43-2.34-2.2-3.14-4.55-4.35-6.73-1.43-2.61-1.29-5.75-4.1-8-2.37-1.94-2.62-5.83-2.41-9.16.15-2.38,1.21-4.53,2-6.75.83-2.47,1.33-5-.77-7.13-.25-.26-.61-.85-.53-.94,2.09-2.38-.58-4.83.1-7.1.54-1.8-1.41-1.55-1.82-2.79-.67-2-.29-4.11-1.24-6-.76-1.52-1.34-3.26-3.09-3.87s-2.63-2-4-3.18c-.3,1.75-3.23,2.92-4.95,2.18a2.48,2.48,0,0,1,1.34-2.21c-.79.37-1.2,1.28-2.08,1.51-1.58.08-1,2-2.12,2.48Z"/><path class="cls-1" d="M116.43,6.12c2-.53,2.71.66,2.9,2.38,1.3-.37.49-1.66,1.32-2.21,1.24-.24.85,1.53,1.64,1.64,1.07-2,1.42-4.32,4.67-3.86,1.41.2,2.54-1.47,4.45-1.21,3.11.43,4.3,3.15,6.48,4.62,1.13.76-.31,1.27-1.07,1.51-1,.3-2.46.07-1.83,1.91.89.28,1.22-1.48,2.18-.62.54.49-.32,1.17-.16,1.92a28.36,28.36,0,0,1,3.25-1.29A2,2,0,0,1,142.64,12c.54,1-.43,1.22-.92,1.74-3,3.08-5.77,6.24-4.3,11.05a1.4,1.4,0,0,1,0,.54c-4,.16-.29,2.93-1.36,4.39-.7.95-.77,2.69-1.84,3.79a4.5,4.5,0,0,0-1,3.31c0,3.49-1.22,5.53-4.72,6.48-2.47.68-5,1.1-6.48,3.53a1.1,1.1,0,0,1-.72.43c-4.89.61-5.85,4.9-7.65,8.31-.79,1.5-.9,1.81-2.74.8-4.68-2.57-3.67-7.09-4.4-11a3.77,3.77,0,0,1,2.35-4.13,1.54,1.54,0,0,0,1-1.9c-.87-.23-1.9,1.88-2.6,0-.46-1.23.27-2,1.41-2.62s1-.87-.16-1.12c-1.64-.35-.8-1.32-.57-1.9.9-2.32.44-4.61.23-7-.24-2.7-1.68-3.49-4.08-3.57-3.07-.11-3.59-1-2.25-3.78a1.1,1.1,0,0,0-.08-1.25c-1.32-2.05-.49-2.89,1.67-3.1.64-.06,1.26-.45,1.91-.48,2.06-.11,3.8-.33,2.07-3-.1-.16.3-.65.47-1C110.27,8.28,113,6.45,116.43,6.12Z"/><path class="cls-1" d="M288.8,141.58c-1.28,3.07-.53,4.67,2.49,5.78,1.32.49,1.38-.58,1.7-1.29.78-1.77.23-3.94,1.81-5.93.52,2.43,2.31,4,2.61,6.24.44,3.41,3.33,5.46,4.75,8.37,1.86,3.79,1.7,8.7-1,11.95a22.57,22.57,0,0,0-3.77,6.26c-.55,1.42-4,2.87-5.41,2.25-.52-.23-.87,0-1.26,0-2-.23-3.94-.82-3.69-3.25.18-1.77-2.21-2.31-1.51-4.08-.82-.16-1,1.1-1.85.84-1.27-4.42-5.37-5.68-10.13-2.79-2.51,1.52-5.48,1-8,2.38-.77.43-2.34-.5-2-1.38,1.73-3.94-.51-7.8.06-11.69.32-2.18,1.24-3.94,3.43-4.19,4.17-.49,6.42-3.56,9.09-6.12,1-1,1.93-2.24,3.56-.91a.78.78,0,0,0,1.24-.17C282.61,140,285.6,140.71,288.8,141.58Z"/><path class="cls-1" d="M107.18,9.92c-1.78.74-2.94,2.74-5.19,2.58-.54,0-.73.42-.92.9-.67,1.71-1.56,3.19-3.61,3.59a1.86,1.86,0,0,0-1.22,1.1c-1.43,5.38-4.88,1-7.32,1.51-.68.13-1.35-1.14-2.27-.36a.71.71,0,0,0-.2,1,3,3,0,0,0,2.45,1.14c1.48.05,3.86-.6,3.62,1.75-.27,2.69-2.58,1.6-4.29,1.3a9.88,9.88,0,0,1-3.72-1.18c-.4-.25-1.11-.49-1-.86a7.19,7.19,0,0,0-.51-6c-.45-.92,1-.63,1.74-.07,2.1,1.71,3.66,1.54,5.42-.59,1-1.24,1-1.4-.72-1.83-1.12-.29-1.66-1-1.4-2.06.7-2.93,1-6.09,4-7.84.32-.18.29-.94,1-.76a.88.88,0,0,1,.59,1.13c-.27,1.38.61,2.29,1.21,3.32.31.53.68.14,1,0,.61-.27.23-.65-.06-.8C93.86,6,95,4.29,95,3.15c.1-1.82,2-1,3.14-1.21,2.71-.56,5.23-1.82,8.07-1.94s6.62,1.86,7.92,4.34c.3.74.48,1.61-.33,2C111.57,7.46,109.86,9.59,107.18,9.92Z"/><path class="cls-1" d="M57.86,31.65c-.94-3-.52-3.25,3.82-2.5-.82-1.45-2.74-.54-3.38-1.64s1-2.25,0-3.73c-.21-.13-.44.38-.8.62-.91.6-2.1,1-2.76,0a2.07,2.07,0,0,1,.55-3,17.07,17.07,0,0,0,2-2c1-1,1.56-2.84,3.47-2.07,1.68.68,3.41,1.27,3.46,3.79A2.67,2.67,0,0,0,67,24c1,0,.19,1.21.9,1.43.45-.78.38-2.05,1.48-2.23.92-.14,1.69-1.81,2.69-.54s-.75,1.38-1.12,2.09c-.93,1.8-2.17,3.53-1.18,5.75.34.76,1.43,1.68.27,2.42s-2.36,2.72-4.22,1l0,.06c-1.07-.72-2.11-.37-3.17,0-2.68,1-3.09.83-4.22-1.81-.1-.25-.39-.39-.63-.54Z"/><path class="cls-1" d="M302.91,139.06c-1.76.86-2.9.24-4-1-.86-1-1.93-2-3.14-.2a1.69,1.69,0,0,1-2.68.16c-.54-1.17-3.06.55-2.51-2.27.42-2.17-2.54-2.61-4-2.71-2.18-.15-1.6-2.25-2.88-2.91-.53-.27.2-.71.6-.91.92-.45,2-.18,2.19.59.58,2.54,1.63,2,3,.73a1.41,1.41,0,0,1,1.59-.12c2.9,1.06,6,1.68,8.23,4.1C300.64,135.88,300.53,138.39,302.91,139.06Z"/><path class="cls-1" d="M270.45,123.1a17.2,17.2,0,0,1-2.13,8.93c-.62,1.19-5.12.43-6.19-1-1.46-2-1.07-3,1-4.45a47,47,0,0,0,5-4.46c.44-.4.77-.83,1.41-.35s1.05.76,1.58,1.13Z"/><path class="cls-1" d="M162.7,18.36a39.86,39.86,0,0,1,2.94,3.57c.35.39,1,.78.55,1.43a1.2,1.2,0,0,1-.84.58,1.22,1.22,0,0,1-1.27-1.22,9.17,9.17,0,0,0-.8-2c-.59,2.14-1.05,3.8-1.56,5.63-2.44-1.3-2.86-4-4.31-5.85-1-1.35-1.2-3.33,1.8-3.1,1.78.14,2.51-2.58,4.79-1.92,1.07.32,2.47-.17,3.32.82.47.55-.19,1.28-.54,1.78-.9,1.29-2.15.73-3.31.46Z"/><path class="cls-1" d="M320.89,171.72c1.18.38,1.22,1.13,1.24,1.9.05,1.37.63,2.92,1.79,3.15,1.75.35,1,.95.5,1.61-2.33,3.35-6,5.34-8.73,8.27-.89.95-1.57,2-2.49,2.95s-2.05,2.19-3.53.67.16-2.23.92-2.88c2.19-1.86,4.73-3.23,6.64-5.56.74-.9,4.37.69,2.37-2.83C322.27,177.07,320.67,174.22,320.89,171.72Z"/><path class="cls-1" d="M193.08,151.37c2.36-1.73-.49-6.57,4.27-7.44.43-.08.74-.8,1.14-1.18s.81-1.64,1.6-1.33a2,2,0,0,1,.81,2.46c-1.08,3.3-2.29,6.55-3.57,9.77a2.15,2.15,0,0,1-2.62,1.16C193.19,154.44,193.42,152.94,193.08,151.37Z"/><path class="cls-1" d="M195.26,37.41c-4.16.39-6-1.22-5.57-4.39.36-2.53.29-5.12,1.61-7.53s4-2.55,5.47-4.55c.28-.39,1.07,0,1.32.65a1.48,1.48,0,0,1-.76,1.91A11.53,11.53,0,0,0,193,29.84C192.05,32.67,192.08,35.2,195.26,37.41Z"/><path class="cls-1" d="M286.27,77.69c3.4,2.27,1.68,5.88,1.88,8.79.08,1.13-3.09,1.93-4.79,2.87-1.16.65-3,.74-2.88,2.78a1.06,1.06,0,0,1-.65.78c-.56.14-.72-.38-.94-.8-.9-1.69.25-4.37,2.29-5.27,3.8-1.69,4.65-3,4.54-7.36a2.93,2.93,0,0,1,.59-1.84Z"/><path class="cls-1" d="M69.05,12.3c.8,1.41,1.88,2.66,2.14,4.45,1.3-.83.71-2.64,2.4-3.05.73.69-.39,2.31,1.31,2.84.82.25-.79,2.68-2.28,2.52a8.49,8.49,0,0,0-3.86.21c-2,.71-1.71-1.34-2.46-2-1-.91-.71-2.51-1.08-3.78C66.48,10.82,67.38,10.55,69.05,12.3Z"/><path class="cls-1" d="M253.36,126l1.72,1.1c.7,1.44,1,2.9,3,3.67,1.53.61-.66,2.4-.19,3.72l.05,0c-2.22.59-3.32-1.08-4.34-2.42-2.21-2.93-3.54-6.48-7-9C250.12,122.32,251,125.63,253.36,126Z"/><path class="cls-1" d="M151.62,72c-.93.09-1.86.23-2.8.27s-2.42.82-2.5.12c-.11-.92-.77-2.14.06-3.09,1.36-1.52.76-2.57-.7-3.54-.91-.59-.78-1.64-.86-2.53a1.86,1.86,0,0,1,1.48-2.1c1.06-.18,1.79,1.52,1.77,1.6-.61,2.25,1.05,3.58,2.2,4.85A5,5,0,0,1,151.58,72Z"/><path class="cls-1" d="M134.61,52.76a4.07,4.07,0,0,1-4-4.06c.07-.81.86-1.42,1.31-1,1.42,1.25,2.85.4,4.16.15s2-.11,2.46,1a1.8,1.8,0,0,1-1,2.55C136.49,52,135.52,52.75,134.61,52.76Z"/><path class="cls-1" d="M213.42,10.62c-3.22,0-6.27-2.39-6.23-4.95,0-.87.47-2.57,1.32-1.65,1.82,2,5,2,6.16,4.68C215.36,10.25,215.07,10.78,213.42,10.62Z"/><path class="cls-1" d="M250.71,7.72c1.23,0,2.27-.31,2.64.94.2.67.08,1.53-.57,1.7-1.37.37-1.81,2.65-3.77,1.75a4.14,4.14,0,0,1-2.24-2.37c-.36-1-.34-2.1,1.15-1.65C249.1,8.44,249.86,6.42,250.71,7.72Z"/><path class="cls-1" d="M76.64,28.77l-.55.45c-.79-.18-1.77,1.21-2.23.16s-1.89-3-1.14-3.5c1.39-.92,2-3.18,4.16-2.86,1,.13,1.33.49,1,1.5C77.41,25.92,77,27.35,76.64,28.77Z"/><path class="cls-1" d="M274.86,116.29c.08-.75.33-1.67-.89-1.57-.71.06-1.44,1.37-1.87-.47s-1.25-3.53-.23-5.35a1.14,1.14,0,0,1,1-.3c.61.11,1.1.69.94,1.21-1,3.12,1.71,4,3.29,5.46a1.71,1.71,0,0,1,.58,1.5c-.31,1.08-1,.9-1.74.5A2.39,2.39,0,0,1,274.86,116.29Z"/><path class="cls-1" d="M80.6,19.69c-2.3,1-4-.16-4-2.79,0-.53-.16-1.24.47-1.49s.62.48.78.85.46.19.71.15C81.8,16,81.79,16,80.6,19.17a1.73,1.73,0,0,0,0,.56Z"/><path class="cls-1" d="M272.51,129.39c.87.68,1.81-.45,2.87.24.33.83-1.71,1.18-.73,2.38.42.53,1.43,1.57.39,2.14s-1.43-.9-2.06-1.49c-.59.52-.08,1.42-1.06,1.81a4.46,4.46,0,0,1-.24-5.08A.48.48,0,0,1,272.51,129.39Z"/><path class="cls-1" d="M286.31,77.64c-1.36-.07-2-1-1.39-2,.81-1.33.59-2.61.28-4.14,1.62.42,2.37,2,4,1.79.55-.06.81.79.56,1-.72.72-1,2.4-2.3,2-2.08-.69-1,.81-1.15,1.42Z"/><path class="cls-1" d="M84.57,10.61c-1.2.78-1.41,3.41-3.77,2,.29-.46,1.8-.66.43-1.64-.49-.35-1.7-.63-.47-1.51.82-.58-.16-2.51,1.48-2.23,1.79.3,2,2,2.3,3.47Z"/><path class="cls-1" d="M257.86,134.52c2.93,1.43,6.86-.19,9.42,3.19-2.95.08-5.55-.71-8.18-1.1a1.46,1.46,0,0,1-1.19-2.13Z"/><path class="cls-1" d="M141.3,68.85a2.8,2.8,0,0,1,2.8-3.12c.87-.1,1.21.52,1.09,1.51-.25,2-1,3.39-3.19,3.53C141.05,70.84,141.05,70.11,141.3,68.85Z"/><path class="cls-1" d="M69.05,12.3c-1.82-1.42-2.67.36-3.83,1.15-.84.11-1.71-.28-1.84-.94-.17-.87.81-1.16,1.53-1.33,1.9-.45,3.41-2.58,5.83-1.28A4.72,4.72,0,0,1,69.05,12.3Z"/><path class="cls-1" d="M76.87,107.64c-4.16.76-6.34-4.33-10.28-2.26C68.86,103.18,72.66,104,76.87,107.64Z"/><path class="cls-1" d="M290,181.06c.94-.46-.78-2.55,1.3-2.24.76.11,2.44-.66,2.4,1.05a3.09,3.09,0,0,1-2.57,3.23C289.91,183.26,290.24,181.92,290,181.06Z"/><path class="cls-1" d="M217.29,12.68c-1.42-.84-.73-2.44-1.33-3.51-.28-.49-.13-1.38.62-1.16,1.2.35,2.88.51,3.1,2S218.18,11.74,217.29,12.68Z"/><path class="cls-1" d="M278.32,118.61c.17.53.34,1,.5,1.58.33,1-.58,1.58-1.09,2a1,1,0,0,1-1.58-.79c.06-1.09-2.74.06-1.27-1.79C275.92,119,276.82,117.78,278.32,118.61Z"/><path class="cls-1" d="M77,109.35c1.76-2.39,3.13-2.47,5.56-.13C80.58,109.56,78.84,110.41,77,109.35Z"/><path class="cls-1" d="M181.89,12.34c-.32.91-.4,2.2-1.48,2.19S178,13.79,178,12.87c0-1.79,2-.42,2.87-1.29C181.42,11,181.72,11.81,181.89,12.34Z"/><path class="cls-1" d="M231.12,120.47c.23-.64-.31-1.87.88-1.67.94.16,1.38,1.23,1.41,2.22,0,.71-.3,1.4-1.1,1.35C231.12,122.29,231.25,121.26,231.12,120.47Z"/><path class="cls-1" d="M189.73,9.35c-1.09.59-.75,2.28-2,2.84-.59.28-.86-.43-1-1-.21-1.52,1.13-2,2-2.69C189.19,8.11,189.56,8.67,189.73,9.35Z"/><path class="cls-1" d="M76,9.46c-.37,1.22-.93,2.46-2.41,2.19-1.23-.23-1-1.52-1.28-2.52l3.74.36Z"/><path class="cls-1" d="M184.49,8.45c.18,1.18,2.57,1.68,1,3.23a1,1,0,0,1-1.53.06C182.67,10.52,184.35,9.61,184.49,8.45Z"/><path class="cls-1" d="M301.25,134.3a7.07,7.07,0,0,0,4.36-2.08C304.64,135.41,303.7,135.84,301.25,134.3Z"/><path class="cls-1" d="M84.54,10.65c1.7-1,1.91.53,2.17,1.47s-.48,1.45-1.33,1.41c-1.59-.06-.95-1.24-.91-2.09,0-.28.07-.55.1-.83Z"/><path class="cls-1" d="M260,105.55l1.24.53a5.94,5.94,0,0,1,.53,1.8,1.07,1.07,0,0,1-1.36,1c-.9-.14-1.08-.92-.54-1.39C260.72,106.78,260.21,106.21,260,105.55Z"/><path class="cls-1" d="M271.89,100.59a3.48,3.48,0,0,1-.2,3.51c-.32.45-.85,0-1-.46A2.37,2.37,0,0,1,271.89,100.59Z"/><path class="cls-1" d="M272.51,129.39h-.83c.06-1.55.92-2.15,2.38-1.92a6,6,0,0,0,3.58-.44c-.93,1.64-2,1.28-2.92,1.31S272.77,128,272.51,129.39Z"/><path class="cls-1" d="M254.08,8.17c1.83-.53,2.9-.78,3.91-.17.29.18.15.69-.22.92C256.59,9.66,255.71,9,254.08,8.17Z"/><path class="cls-1" d="M13.63,46.53h0c.45.08,1.26-.34,1.1.63-.2,1.15-1.16,1.62-2.12,2a.71.71,0,0,1-.68-.17c-.39-.85.36-1.06.85-1.46A7,7,0,0,0,13.63,46.53Z"/><path class="cls-1" d="M80.56,19.73c1.25-.2,2.06.12,1.82,1.6-.09.59-.35,1.15-1.08.9-1.39-.49-1-1.55-.7-2.54Z"/><path class="cls-1" d="M275.94,116.66c.11,1.11-.08,2-1.51,1.84.68-.64-1.92-1.91.43-2.21Z"/><path class="cls-1" d="M15.74,44.06c1.67-1.89,1.67-1.89,3.78-2.39a10.18,10.18,0,0,0-3,3.09Z"/><path class="cls-1" d="M255.06,15.23c-.61,0-1.21,0-1.18-.82a.83.83,0,0,1,1.12-.85c.61.13,1.42.25,1.36,1.07S255.52,15.12,255.06,15.23Z"/><path class="cls-1" d="M280.06,129.64c-.42-1.41-.85-2.38.19-3.18.09-.07.53.12.64.29C281.55,127.78,280.77,128.46,280.06,129.64Z"/><path class="cls-1" d="M279.51,137.74l-3.72,1.94C276.27,137.75,276.27,137.75,279.51,137.74Z"/><path class="cls-1" d="M76.06,9.49,74.34,7.92c1.28-.14,2.3-.77,2.83.45.33.74-.41,1.1-1.16,1.09Z"/><path class="cls-1" d="M2.69,50.93v.67a2.92,2.92,0,0,1-2.7.87C.54,51,1.66,51,2.69,50.93Z"/><path class="cls-1" d="M89.62,39.58a2.76,2.76,0,0,1,0,1.07,1.39,1.39,0,0,1-1.53.93c-.19,0-.52-.48-.47-.56a4.33,4.33,0,0,1,1-1.27c.24-.19.7-.1,1.06-.13Z"/><path class="cls-1" d="M6.22,32.81A2.34,2.34,0,0,1,3.85,30.9C5.31,30.59,5.71,31.41,6.22,32.81Z"/><path class="cls-1" d="M318.08,153.89c-1.45-.52-2.16-1.14-2.28-2.71A3.85,3.85,0,0,1,318.08,153.89Z"/><path class="cls-1" d="M151.58,72l0,0a0,0,0,0,0,0,0Z"/><path class="cls-1" d="M300.17,23.94c.35-2.06,1-2.13,2.23-2a6.4,6.4,0,0,0,3.15-.28c-.63-1.51-1.52-2.82-1.38-4.64s-2.26-2.57-3.81-1.3c-.73.59-1,.27-1.68.17-4-.56-8-2.29-12.18-1.21-3,.77-3,.85-.93,3.23.06.08-.05.32-.09.5-1.68.28-2.07-1.19-3-2.46-.74,2.67-3.23,1.93-4.78,3a1.69,1.69,0,0,1-2.64-.62c-1.2-1.85-2.94-1.92-4.7-.85-1.28.78-2.41,1.17-3.81.21-2.83-1.93-5.95-1.57-9.1-1-1.26.23-2.16,1.06-1.39,2,1.47,1.85-.05,1.61-1,2.29-1.28.9-4.48-.46-3.46,3.06-2.39-.54-3-2.55-4.3-3.92-2-2.14-3.75-1.95-5.3.48a1.9,1.9,0,0,1-2.53.65c-1.84-1.4-3.53-.11-5.26-.17-2-.08-3.22.53-3.94,2.46a30.33,30.33,0,0,1,1-5A2.82,2.82,0,0,0,230.16,15c-1.35-.81-2.72-2.26-4.62-1-.34.23-.57,1.34-1.46.05-.54-.78-2-2.4-3.48-1.55s-.71,2.22-.4,3.56c.23,1-.74,2.47-1.47,2.34-3-.56-3.41,2.38-5.08,3.54s-2.21,2.64.38,3.76c-4.73,2.5-4.79,2.87-.54,6.13-1.65-.63-2.57-1-3.48-1.33-1.64-.7-1,1.38-1.94,1.55-.09,0-.21,0-.27,0-1.74-1.16-1.26.55-1.59,1.22a10.78,10.78,0,0,0,.92,2.49,9.41,9.41,0,0,0-1.45-1.92c.16-2.29-1.4-3.36-3.37-4.61.07,4-1.94,8.14,2.6,11-2.89-1.48-5.92-1.78-9-2.61.38,1.45,2.19,1.33,2.15,2.75-3.22,1.51-7.61.32-9.74,4.47-.44.85-1.59.42-1.12-1,.35-1-.36-1.45-1.16-1.45-1.55,0-.64,1.12-.46,1.58.82,2.18-.56,2.6-2.13,2.94a2.9,2.9,0,0,0-1.86-3.59c-1.71-.76-3.2-1.87-5.18-2.17-.8-.12-2.49-.26-2.48-.65,0-2.6-2-1.73-3.05-1.77-3.81-.14-7.77,3.21-9.07,6.51s-2.38,6.52-5.59,8.52c-1.92,1.2-2.48,5.49-1.1,7.25a1.55,1.55,0,0,0,2.26.36c.63-.41,1.22-.87,1.83-1.32,2,3.94,2,3.94.29,5.09-.26-.87.23-1.87-.45-2.66-1.92,1.22-2,1.34-1.61,3.28.15.73.7,1.88-.18,1.93-2.94.17-3,3.62-5.13,4.68-1,2.3-4.31,1.24-6,2.65.75,1.08,2.08,1.37,2.69,2.51,1,1.88.29,3.43-1.73,3.49-5,.15-4.94.16-5.59,5a3.48,3.48,0,0,0,.26,1.64A1.91,1.91,0,0,0,143,89.07c2.23,1,2.33,2.3.22,3.74-1.08.75-2,1.56-2.16,2.8-.15,1.73-1.09,2.6-2.4,3.54-2.51,1.79-4.69,4.32-4.81,7.3-.08,2.07.51,4.16-.3,6.28a2.79,2.79,0,0,0,.25,2.42c2,1.89,3.3,4.28,5.17,6.22,3.53,3.66,7.76,2,11.77,1.28,1.92-.34,3.77-1.68,5.11.92.33.64,1,.69,1.76.55,2.4-.48,2.86.71,2.24,2.72s-.48,4,1.42,5.59,1.91,4.39,2.6,6.71c.47,1.57-.89,2.16-1.27,3.24a7.67,7.67,0,0,0,0,6c2,4.82,3.36,9.87,4.88,14.87.29.94.75,1.84,1.56,1.7,3.46-.58,7.09-.2,10-3.1,2.59-2.56,3.08-6.52,6.24-8.6a1.72,1.72,0,0,0,.28-1.59c-1.25-2.66.64-3.82,2.34-5,3.85-2.61,4.21-4,2.65-8.69-.69-2.09-1.18-4.43.63-6.35,1.62-1.72,3.11-3.68,5-5,3-2,4.22-5,5.63-8,.58-1.21,1-2.85-1.57-2a32.45,32.45,0,0,1-3.61.71c-1.87.39-1.6.17-1.33-1.74,6-1,10.05-3.72,13.82-8.73,1.31-1.73,1-2.77-.86-3.44-1.28-.47-1.85-1.15-1.57-2.47,2,.7,4.17,1.36,6.3,1a5.45,5.45,0,0,1,5.47,1.78c1.17,1.21,1.61,4,4.39,2.64a2.9,2.9,0,0,1,.32.73c.48,4.24,2.93,7.71,4.47,11.54.74,1.81,1.5,1.69,2.56.42a3.12,3.12,0,0,0,1-2.25c-.39-4.24,2.52-6.6,5.26-8.94.89-.75,1-2.15,2.6-2.39a5.9,5.9,0,0,1,6.06,4.09c.41,1.71.53,2.68,2.56,1.68.83-.41,1,.59,1.22,1.18a10.87,10.87,0,0,1,1,5.22c-.1.81-.44,1.8.29,2.44,1.82,1.59,2,4,3,5.94,0,1.19.75,1.36,1.72,1.1.45,0,1.21.08,1-.54-.57-1.72-.48-3.65-2.31-4.93-2.31-1.61-3.52-3.84-1.84-6.74,2.29.8,3.63,2.72,5.22,4.34,5.25-4.34,5.23-4.33.75-9.52-.5-.58-1.42-1.17-.93-2.18.6-1.27,1.48-2.21,3.07-2,.4.2.59.91,1.24.53a32.78,32.78,0,0,1,3.51-1.75c5.88-2.13,8.12-8.53,4.44-13.66-1.59-2.23-2.19-3.8,1-5.33-.89-.36-1.47-.82-1.89-.71-1.23.35-2.56.72-3.17-.64s1.23-1.6,1.55-2.65a1,1,0,0,1,1.26-.71c.09.72.19,1.5.3,2.39,1.57-.84,3-2.72,4,.69.38,1.25,2,2.4,2.13,4.13.08.86.77.61,1.31.51,2-.37,2-1.95.35-4.47-.6-.92-2.7-1.56-1.2-3.19,1-1.1.12-2.67,1.2-3.66.4-.37.68-1,1.35-.82,1.58.52,2-.67,2.48-1.67.79-1.71,1.23-3.57,1.88-5.33,1-2.7-.72-5.11-.57-7.79.39.19.66.23.71.35.9,2.48,1.79,5,2.65,7.44.18.51.11,1.19,1,.78s.67-.73.21-1.27c-.69-.81-1.48-1.82-1.06-2.8,1.18-2.84-1.93-4.07-2.14-6.24-.34-3.59-3.26-2.29-4.89-2.46-4.25-.46-4.22-.19-3.17-4,1-3.57,1.45-7.41,6.51-7.71,1-.06,1.91-1.41,3.09-.05.72.81,1.34-.2,2-.45.42-.17.91-.52.38-1-1.24-1.22.16-2.5-.12-3.76-.2-.87.34-1.43,1.19-1.64a1.25,1.25,0,0,1,1.63.65c.79,1.39,1.36.95,1.72-.37a12.46,12.46,0,0,1,.79-1.86,4,4,0,0,1,.41,3.3c-1.66,6.41-2.41,12.75,2.84,18.1.06.07.07.18.13.25.3.43.39,1.28,1.1,1.05a1.44,1.44,0,0,0,.81-1.66,10.35,10.35,0,0,1,.34-4.65c.79-2.76.45-5.54-1.32-7.3-1.57-1.55-2-3.72-1.4-4.54,1.06-1.36,2.63-3.47,5.1-2.09.79-2.86.32-6.15,3.93-7.36.82-.28.4-1.18-.06-1.67C301.77,28.62,299.55,27.5,300.17,23.94ZM183.32,47.11c-.93,1.41-2,2.31-3.88,1.16C180.84,48.2,182.29,48.25,183.32,47.11Zm-1.39,48.24c-3.23.18-6.39.11-9.35-1.43-1-.49-2.28-.46-2.5.44-1,4.25-3.16,1-4.47.52-1-.36-1.81-1.16-3-1.26-1.55-.12-2.33-.72-1.91-2.55.31-1.36-.31-2.29-2.08-2.1-3.16.35-6.44,0-9.33,1.8-1.28.8-2.52.13-3.79-.18.4-1.21,1.34-1,2.15-1.11a3.15,3.15,0,0,0,2.75-2.81,3,3,0,0,1,.48-1.58,12.88,12.88,0,0,1,7.29-4.7c.18,0,.45-.16.53-.08,2.2,2,4.82,3.7,6.4,6.09,1,1.49-1.6,1-2.57,1.77,1.08,1.52,2,1.44,3.12,0,1.78-2.37,1.65-3.65-.72-5.19a7.15,7.15,0,0,1-3-3.75,11.41,11.41,0,0,1,6.82,5.9,18.23,18.23,0,0,0,2,3.38c.37.52.94,1.59,1.71.61.41-.53,1.88-1.07.65-2.26-.39-.37-1.29-.84-.43-1.55.48-.41,1-.94,1.75-.78s.71.91.84,1.56c.64,3.11,1.59,3.69,5.06,3.6,1.25,0,2.49.77,3.77,0,.33-.21.7.11.9.47C185.89,91.66,183.76,95.25,181.93,95.35Zm18.89,4.9a4.25,4.25,0,0,1-1.42-2.4,7.21,7.21,0,0,0,6,3.13C203.54,102.83,202.16,101.74,200.82,100.25Zm6.83-63.49a13.93,13.93,0,0,1,1.9,4.2C208.85,39.8,208.38,38.27,207.65,36.76Z"/><path class="cls-1" d="M159,81.46c.26,1.76.46,2.91.58,4.07.06.58-.16,1.2-.85,1.19s-.92-.68-.8-1.22C158.16,84.33,157.72,83,159,81.46Z"/></svg>